<svg id="Layer_1" data-name="Layer 1" xmlns="http://www.w3.org/2000/svg" viewBox="0 0 122.88 93.38"><defs><style>.cls-1{fill-rule:evenodd;}</style></defs><title>business-trip</title><path class="cls-1" d="M8.74,16.94h4.62V82.46H8.74A8.75,8.75,0,0,1,0,73.73V25.67a8.76,8.76,0,0,1,8.74-8.73Zm65.6,71.61c-.53-2,.09-4.27,1.35-7L63.17,77.7c-.76-.12-.85-.53-.59-1.12L64.33,74a1.7,1.7,0,0,1,1.26-.59l13.81-1.3,7.82-14.88L56.85,46.76c-.75-.21-.92-.62-.38-1.31l2.91-4,36,.44,7.07-13.24c2.55-3.76,5.43-5.91,8.07-6a2.65,2.65,0,0,1,2.81,1.41c1.49,2.3,1.13,6-.94,10.29l-7.94,12.74,18.4,31-2,4.5c-.32.8-.76.86-1.32.32l-24.28-21-9,14.2,5.78,12.62a1.66,1.66,0,0,1,.12,1.38L90.9,92.93c-.38.52-.79.65-1.26,0L80,84.09c-1.7,2.44-3.36,4.1-5.37,4.64-.18,0-.24,0-.29-.18ZM40.85,0H58.23a9.85,9.85,0,0,1,9.83,9.83v5.25H61.8V9.81a3.46,3.46,0,0,0-3.45-3.45H40.73a3.46,3.46,0,0,0-3.45,3.45v5.27H31V9.83A9.85,9.85,0,0,1,40.85,0ZM18.54,16.94H80.08V31.55l-20-.25a10.2,10.2,0,0,0-9,4.16l-2.72,3.67a10.54,10.54,0,0,0-2,10.32h0A10.43,10.43,0,0,0,54,56.57l17.51,6.06-6.76.64a11.42,11.42,0,0,0-4.34,1.17A11.93,11.93,0,0,0,56.93,67a9.35,9.35,0,0,0-1,1.24l-1.39,2a10,10,0,0,0-1.32,2.21,10.65,10.65,0,0,0-.63,7.43,9.63,9.63,0,0,0,.54,1.56c.16.35.33.7.51,1H18.54V16.94Zm66.73,0h5.78A8.7,8.7,0,0,1,97,19.26a29.82,29.82,0,0,0-2.72,3.42,10.91,10.91,0,0,0-.77,1.22l-4.14,7.76-4.06-.05V16.94Zm13.25,61.3h0Z"/></svg>